<?xml version="1.0" standalone="no"?>
<!DOCTYPE svg PUBLIC "-//W3C//DTD SVG 20010904//EN"
 "http://www.w3.org/TR/2001/REC-SVG-20010904/DTD/svg10.dtd">
<svg version="1.0" xmlns="http://www.w3.org/2000/svg"
 width="800.000000pt" height="800.000000pt" viewBox="0 0 800.000000 800.000000"
 preserveAspectRatio="xMidYMid meet">
<metadata>
Created by potrace 1.14, written by Peter Selinger 2001-2017
</metadata>
<g transform="translate(0.000000,800.000000) scale(0.100000,-0.100000)"
fill="#000000" stroke="none">
<path d="M0 4000 l0 -4000 4000 0 4000 0 0 2820 0 2820 -22 1 -23 0 23 11 22
11 0 1169 0 1168 -4000 0 -4000 0 0 -4000z m5671 3801 c8 -18 22 -36 29 -41 8
-5 15 -23 16 -39 l2 -30 -22 32 c-12 17 -32 37 -45 44 -33 16 -46 40 -30 59
17 20 31 13 50 -25z m103 -177 c3 -8 2 -12 -4 -9 -6 3 -10 10 -10 16 0 14 7
11 14 -7z m-117 -251 c-2 -38 -3 -7 -3 67 0 74 1 105 3 68 2 -38 2 -98 0 -135z
m2031 165 c33 -33 -17 -78 -53 -48 -26 22 -10 60 25 60 9 0 21 -5 28 -12z
m-1727 -49 c-34 -20 -56 -25 -46 -9 11 18 -55 -12 -77 -36 -13 -13 -27 -24
-31 -24 -4 0 1 10 13 22 11 12 20 35 20 50 0 26 2 28 20 18 22 -12 90 -3 90
11 0 6 9 5 21 -2 21 -11 20 -11 -10 -30z m-71 -53 c0 -2 -8 -10 -17 -17 -16
-13 -17 -12 -4 4 13 16 21 21 21 13z m90 -66 c0 -28 -21 -36 -37 -14 -12 16
-11 20 3 31 21 15 34 8 34 -17z m727 4 c-3 -3 -12 -4 -19 -1 -8 3 -5 6 6 6 11
1 17 -2 13 -5z m-951 -33 c-4 -5 -1 -11 5 -13 7 -2 -7 -19 -30 -37 -22 -18
-41 -39 -41 -46 0 -18 -37 -39 -44 -26 -8 13 4 41 18 41 6 0 27 20 46 45 19
24 39 44 43 45 5 0 6 -4 3 -9z m1127 2 c-13 -2 -33 -2 -45 0 -13 2 -3 4 22 4
25 0 35 -2 23 -4z m145 -22 c7 -22 -20 -32 -45 -16 -12 8 -31 15 -43 15 -11 0
-20 4 -20 9 0 15 103 8 108 -8z m-5266 -96 c0 -5 -5 -11 -11 -13 -6 -2 -11 4
-11 13 0 9 5 15 11 13 6 -2 11 -8 11 -13z m2594 -120 c4 -8 3 -27 -1 -43 -4
-15 -10 -21 -12 -14 -3 6 -11 12 -19 12 -14 0 -20 41 -7 53 11 12 33 7 39 -8z
m-2334 -219 c29 -13 68 -35 86 -49 l34 -25 46 20 c162 69 388 95 557 64 145
-28 303 -102 419 -199 33 -28 52 -37 61 -31 7 5 41 30 76 56 172 125 322 178
529 185 220 8 376 -32 534 -138 224 -150 359 -371 425 -696 19 -93 21 -137 21
-490 0 -412 5 -467 50 -571 26 -61 130 -164 192 -192 112 -48 347 -54 461 -10
114 43 214 155 250 279 7 23 13 322 16 816 6 766 6 781 27 826 31 67 78 114
146 149 141 70 309 12 386 -134 l27 -51 3 -755 c3 -818 -1 -898 -52 -1046 -54
-161 -154 -321 -267 -430 -125 -120 -250 -190 -435 -241 -95 -27 -108 -28
-319 -28 -205 1 -226 3 -316 27 -196 53 -311 118 -439 247 -96 96 -140 159
-212 300 -97 190 -108 266 -108 761 -1 387 -7 457 -55 570 -66 157 -146 215
-295 215 -47 -1 -103 -7 -124 -14 -83 -29 -156 -124 -202 -261 -17 -51 -19
-114 -24 -845 -6 -886 0 -822 -82 -911 -61 -67 -124 -94 -218 -94 -93 0 -157
27 -217 92 -85 93 -77 15 -83 903 -6 862 -5 837 -65 958 -53 105 -111 150
-217 167 -181 31 -318 -54 -377 -232 -37 -113 -41 -209 -41 -942 0 -498 -3
-720 -11 -746 -19 -62 -78 -130 -144 -167 -53 -29 -68 -33 -138 -33 -96 0
-153 26 -220 100 -82 92 -77 4 -77 1260 0 1276 -7 1174 89 1271 90 90 198 113
303 65z m-1084 -213 c-4 -22 -22 -20 -26 1 -2 10 3 16 13 16 10 0 15 -7 13
-17z m4008 -405 c7 -11 -34 -53 -44 -44 -2 3 -2 17 2 31 7 26 30 34 42 13z
m2124 -523 c17 -9 30 -17 30 -18 0 -2 -21 -4 -46 -4 -25 -1 -51 -6 -57 -12
-18 -18 -47 -13 -47 8 0 12 11 22 33 29 45 14 54 14 87 -3z m110 -101 c0 -2
-12 -4 -26 -4 -14 0 -23 4 -20 9 6 8 46 4 46 -5z m-460 -28 c0 -2 -7 -9 -15
-16 -13 -11 -14 -10 -9 4 5 14 24 23 24 12z m-5695 -82 c49 -28 58 -39 23 -29
l-23 6 24 -20 c32 -28 22 -26 -52 10 -51 26 -63 36 -59 51 5 22 20 19 87 -18z
m5652 -16 c-3 -7 -5 -2 -5 12 0 14 2 19 5 13 2 -7 2 -19 0 -25z m590 19 c7 -4
10 -13 8 -20 -4 -12 56 -63 105 -89 49 -26 52 -29 39 -44 -17 -20 -41 -17 -65
9 -104 113 -108 118 -93 128 10 7 8 8 -10 7 -13 -2 -26 2 -28 8 -4 12 25 12
44 1z m-5817 -61 c0 -2 3 -11 6 -19 4 -10 -12 -27 -49 -51 -30 -20 -57 -45
-60 -56 -6 -24 -30 -26 -51 -4 -24 23 -20 30 28 54 52 25 78 50 52 50 -19 0
-21 16 -3 23 15 7 77 9 77 3z m32 -366 c2 6 14 -3 26 -20 23 -31 22 -50 -4
-50 -8 0 -14 9 -14 20 0 10 -6 23 -12 27 -7 4 -20 17 -28 28 -14 20 -14 20 7
2 13 -12 22 -14 25 -7z m5068 10 c0 -5 -4 -10 -10 -10 -5 0 -10 5 -10 10 0 6
5 10 10 10 6 0 10 -4 10 -10z m-6495 -150 c3 -5 -1 -10 -10 -10 -9 0 -13 5
-10 10 3 6 8 10 10 10 2 0 7 -4 10 -10z m2425 -107 c0 -10 21 -60 47 -112 36
-71 55 -97 75 -105 27 -10 47 -36 28 -36 -20 0 -8 -21 75 -124 57 -70 92 -106
105 -106 28 0 26 -38 -2 -50 -21 -8 -21 -9 -3 -9 14 -1 16 -4 8 -12 -16 -16
-43 -4 -43 19 0 20 -74 132 -96 145 -8 4 -19 17 -25 29 -9 16 -8 19 3 12 7 -4
2 6 -12 23 -14 18 -34 32 -46 32 -36 1 -56 37 -66 119 -1 6 -5 12 -10 12 -5 0
-6 5 -3 10 3 6 2 10 -4 10 -5 0 -13 9 -16 20 -4 11 -21 40 -40 64 -26 34 -31
47 -22 56 9 10 9 11 0 6 -7 -4 -13 -2 -13 3 0 6 14 11 30 11 22 0 30 -5 30
-17z m78 -540 c-15 -2 -42 -2 -60 0 -18 2 -6 4 27 4 33 0 48 -2 33 -4z m-1548
-387 c0 -11 -19 -15 -25 -6 -3 5 1 10 9 10 9 0 16 -2 16 -4z m1870 -15 c187
-42 366 -129 422 -205 80 -109 90 -190 36 -307 -71 -154 -209 -207 -375 -143
-196 76 -201 77 -313 72 -125 -6 -213 -37 -285 -100 -39 -35 -45 -45 -45 -79
0 -51 19 -86 69 -132 66 -60 133 -88 352 -147 208 -57 434 -162 562 -262 46
-37 47 -61 6 -148 -37 -80 -154 -235 -211 -282 -43 -35 -99 -68 -116 -68 -5 0
-51 26 -103 57 -118 71 -260 134 -398 175 -241 71 -386 146 -513 264 -167 155
-240 321 -242 549 0 129 19 216 70 317 90 177 302 342 528 409 174 52 401 64
556 30z m2587 -53 c-2 -13 -4 -3 -4 22 0 25 2 35 4 23 2 -13 2 -33 0 -45z
m2109 41 c8 -13 -7 -23 -89 -60 -31 -14 -54 -29 -50 -34 5 -4 2 -5 -4 -1 -7 4
-23 1 -35 -6 -13 -6 -27 -13 -33 -14 -5 -1 -28 -10 -50 -19 -64 -27 -29 -2
105 74 129 73 144 79 156 60z m-2736 -19 c0 -5 -5 -10 -11 -10 -5 0 -7 5 -4
10 3 6 8 10 11 10 2 0 4 -4 4 -10z m-3546 -66 c22 -8 20 -41 -3 -54 -27 -14
-51 -2 -51 25 0 29 22 41 54 29z m4045 -48 c264 -74 464 -189 640 -369 112
-114 191 -227 261 -372 98 -204 129 -324 137 -541 7 -180 -10 -303 -62 -461
-115 -346 -352 -627 -665 -787 -206 -105 -352 -143 -585 -152 -304 -12 -564
62 -825 237 -119 80 -246 205 -283 281 -89 179 -51 321 178 667 l109 165 13
-90 c28 -194 99 -333 238 -461 127 -119 258 -180 433 -203 328 -42 645 131
787 431 40 84 75 233 75 320 0 142 -55 325 -134 445 -19 28 -60 77 -92 108
-228 224 -561 288 -841 160 -250 -113 -368 -255 -638 -764 -213 -402 -404
-669 -664 -931 -177 -178 -293 -252 -489 -315 -229 -72 -526 -70 -747 6 -138
48 -276 134 -379 236 -172 174 -224 328 -157 470 96 203 384 220 507 29 89
-139 215 -200 414 -198 183 2 262 37 448 198 219 191 273 271 591 873 162 307
272 469 435 639 193 201 425 330 711 393 77 17 118 19 290 16 179 -3 210 -6
294 -30z m1927 -42 c-1 -25 -9 -28 -181 -81 -99 -30 -187 -61 -196 -69 -8 -8
-28 -14 -43 -14 -42 0 -278 -69 -308 -91 -35 -24 -55 -24 -63 1 -12 37 3 60
38 60 29 0 263 61 342 89 17 6 77 25 135 42 88 26 273 85 276 88 1 1 1 -11 0
-25z m-6743 -281 l38 -77 -59 55 c-56 50 -71 76 -55 92 20 20 41 0 76 -70z
m3125 18 c8 -5 12 -21 10 -37 -3 -25 -7 -29 -33 -29 -24 0 -31 5 -33 23 -7 46
20 66 56 43z m-3513 -381 c18 -20 17 -20 -18 -20 -24 0 -37 5 -37 13 0 32 29
36 55 7z m702 8 c15 -19 25 -254 17 -400 -6 -111 -9 -128 -24 -128 -15 0 -17
22 -18 243 0 142 -5 253 -11 270 -9 23 -8 27 8 27 10 0 23 -6 28 -12z m4013
-682 c0 -8 3 -21 6 -29 7 -20 -26 -31 -44 -14 -11 12 -12 18 0 36 15 24 38 28
38 7z m-4656 -252 c18 -17 19 -24 10 -48 -6 -16 -30 -21 -58 -10 -21 8 -20 50
2 63 23 14 28 14 46 -5z m676 -14 c0 -5 -8 -10 -17 -10 -15 0 -16 2 -3 10 19
12 20 12 20 0z m60 -6 c0 -9 -5 -14 -12 -12 -18 6 -21 28 -4 28 9 0 16 -7 16
-16z m-40 -404 c0 -5 -4 -10 -10 -10 -5 0 -10 5 -10 10 0 6 5 10 10 10 6 0 10
-4 10 -10z m3487 -916 c7 -19 -9 -36 -39 -39 -13 -2 -35 -6 -49 -10 -17 -4
-30 -2 -34 6 -5 8 -4 10 3 5 12 -7 29 3 60 37 20 21 51 22 59 1z m-377 -109
c0 -20 -29 -45 -51 -45 -11 0 -17 -4 -14 -10 3 -6 -1 -7 -10 -4 -12 5 -13 10
-6 17 6 6 11 19 11 29 0 9 7 21 16 26 21 12 54 4 54 -13z m-227 -337 c-9 -18
-19 -40 -23 -48 -11 -23 -54 -19 -58 5 -2 15 10 27 45 47 27 15 49 27 50 27 1
1 -5 -14 -14 -31z m-414 15 l23 -6 -23 -13 c-31 -17 -69 -18 -69 -1 0 27 21
33 69 20z m-992 -129 c8 -21 -13 -42 -28 -27 -13 13 -5 43 11 43 6 0 13 -7 17
-16z m4833 -184 c0 -5 -2 -10 -4 -10 -3 0 -8 5 -11 10 -3 6 -1 10 4 10 6 0 11
-4 11 -10z"/>
</g>
</svg>
